ISO-10303-21;
HEADER;
FILE_DESCRIPTION (( 'STEP AP214' ),
    '1' );
FILE_NAME ('µç³Ø»ÆÆ¬¸Ç°å.STEP',
    '2026-04-19T05:22:17',
    ( '' ),
    ( '' ),
    'SwSTEP 2.0',
    'SolidWorks 2026',
    '' );
FILE_SCHEMA (( 'AUTOMOTIVE_DESIGN' ));
ENDSEC;

DATA;
#1 = CARTESIAN_POINT ( 'NONE',  ( 49.29999999999999716, 0.000000000000000000, 2.500000000000000000 ) ) ;
#2 = FACE_OUTER_BOUND ( 'NONE', #354, .T. ) ;
#3 = CARTESIAN_POINT ( 'NONE',  ( 7.349999999999999645, 7.500000000000000000, 2.500000000000000000 ) ) ;
#4 = VECTOR ( 'NONE', #494, 1000.000000000000000 ) ;
#5 =( GEOMETRIC_REPRESENTATION_CONTEXT ( 3 ) GLOBAL_UNCERTAINTY_ASSIGNED_CONTEXT ( ( #461 ) ) GLOBAL_UNIT_ASSIGNED_CONTEXT ( ( #556, #107, #55 ) ) REPRESENTATION_CONTEXT ( 'NONE', 'WORKASPACE' ) );
#6 = DIRECTION ( 'NONE',  ( -0.000000000000000000, -0.000000000000000000, -1.000000000000000000 ) ) ;
#7 = CARTESIAN_POINT ( 'NONE',  ( 38.99999999999999289, 7.500000000000000000, 0.000000000000000000 ) ) ;
#8 = EDGE_CURVE ( 'NONE', #231, #572, #121, .T. ) ;
#9 = EDGE_LOOP ( 'NONE', ( #245, #420, #563, #29 ) ) ;
#10 = PLANE ( 'NONE',  #447 ) ;
#11 = FILL_AREA_STYLE_COLOUR ( '', #622 ) ;
#12 = ORIENTED_EDGE ( 'NONE', *, *, #719, .F. ) ;
#13 = CARTESIAN_POINT ( 'NONE',  ( 0.000000000000000000, 0.000000000000000000, 0.000000000000000000 ) ) ;
#14 = LINE ( 'NONE', #304, #409 ) ;
#15 = ORIENTED_EDGE ( 'NONE', *, *, #146, .F. ) ;
#16 = VECTOR ( 'NONE', #524, 1000.000000000000000 ) ;
#17 = CIRCLE ( 'NONE', #657, 1.599999999999999867 ) ;
#18 = VECTOR ( 'NONE', #220, 1000.000000000000000 ) ;
#19 = DIRECTION ( 'NONE',  ( 0.000000000000000000, 1.000000000000000000, 0.000000000000000000 ) ) ;
#20 = CARTESIAN_POINT ( 'NONE',  ( 3.200000000000001066, 4.500000000000000000, -7.500000000000000000 ) ) ;
#21 = VERTEX_POINT ( 'NONE', #76 ) ;
#22 = CYLINDRICAL_SURFACE ( 'NONE', #697, 1.599999999999999867 ) ;
#23 = ADVANCED_FACE ( 'NONE', ( #588 ), #425, .T. ) ;
#24 = CARTESIAN_POINT ( 'NONE',  ( 35.79999999999999716, 7.500000000000000000, 0.000000000000000000 ) ) ;
#25 = EDGE_LOOP ( 'NONE', ( #373, #451, #337, #702 ) ) ;
#26 = CARTESIAN_POINT ( 'NONE',  ( 49.29999999999999716, 0.000000000000000000, 0.000000000000000000 ) ) ;
#27 = EDGE_CURVE ( 'NONE', #368, #501, #80, .T. ) ;
#28 = CARTESIAN_POINT ( 'NONE',  ( 7.960204194457795477E-16, 4.500000000000000000, -7.500000000000000000 ) ) ;
#29 = ORIENTED_EDGE ( 'NONE', *, *, #243, .F. ) ;
#30 = AXIS2_PLACEMENT_3D ( 'NONE', #151, #207, #716 ) ;
#31 = DIRECTION ( 'NONE',  ( -0.000000000000000000, -0.000000000000000000, -1.000000000000000000 ) ) ;
#32 = CARTESIAN_POINT ( 'NONE',  ( 30.90000000000000213, 10.84999999999999964, 0.000000000000000000 ) ) ;
#33 = EDGE_LOOP ( 'NONE', ( #408, #263, #99, #558 ) ) ;
#34 = ADVANCED_FACE ( 'NONE', ( #636 ), #584, .F. ) ;
#35 = PLANE ( 'NONE',  #469 ) ;
#36 = CARTESIAN_POINT ( 'NONE',  ( 32.05000000000000426, 10.84999999999999964, 2.500000000000000000 ) ) ;
#37 = VERTEX_POINT ( 'NONE', #308 ) ;
#38 = LINE ( 'NONE', #230, #351 ) ;
#39 = ORIENTED_EDGE ( 'NONE', *, *, #195, .F. ) ;
#40 = DIRECTION ( 'NONE',  ( -1.000000000000000000, 0.000000000000000000, 0.000000000000000000 ) ) ;
#41 = CIRCLE ( 'NONE', #56, 1.149999999999998135 ) ;
#42 = DIRECTION ( 'NONE',  ( 1.000000000000000000, -0.000000000000000000, -0.000000000000000000 ) ) ;
#43 = VECTOR ( 'NONE', #90, 1000.000000000000000 ) ;
#44 = VERTEX_POINT ( 'NONE', #72 ) ;
#45 = CARTESIAN_POINT ( 'NONE',  ( 46.09999999999999432, 11.00000000000000000, -7.500000000000000000 ) ) ;
#46 = ADVANCED_BREP_SHAPE_REPRESENTATION ( '\X2\75356c609ec4724776d6677f\X0\', ( #89, #314 ), #5 ) ;
#47 = PRODUCT_RELATED_PRODUCT_CATEGORY ( 'part', '', ( #444 ) ) ;
#48 = CARTESIAN_POINT ( 'NONE',  ( 5.750000000000000000, 7.500000000000000000, 2.500000000000000000 ) ) ;
#49 = ORIENTED_EDGE ( 'NONE', *, *, #279, .T. ) ;
#50 = LINE ( 'NONE', #45, #742 ) ;
#51 = CARTESIAN_POINT ( 'NONE',  ( 29.75000000000000355, 10.84999999999999964, -7.500000000000000000 ) ) ;
#52 = EDGE_CURVE ( 'NONE', #137, #484, #41, .T. ) ;
#53 = ORIENTED_EDGE ( 'NONE', *, *, #106, .T. ) ;
#54 = EDGE_LOOP ( 'NONE', ( #627, #256 ) ) ;
#55 =( NAMED_UNIT ( * ) SI_UNIT ( $, .STERADIAN. ) SOLID_ANGLE_UNIT ( ) );
#56 = AXIS2_PLACEMENT_3D ( 'NONE', #639, #419, #248 ) ;
#57 = CARTESIAN_POINT ( 'NONE',  ( 46.09999999999999432, 11.00000000000000000, 2.500000000000000000 ) ) ;
#58 = VECTOR ( 'NONE', #470, 1000.000000000000000 ) ;
#59 = ORIENTED_EDGE ( 'NONE', *, *, #305, .T. ) ;
#60 = EDGE_CURVE ( 'NONE', #44, #601, #591, .T. ) ;
#61 = CARTESIAN_POINT ( 'NONE',  ( 46.09999999999999432, 4.500000000000000000, 2.500000000000000000 ) ) ;
#62 = ORIENTED_EDGE ( 'NONE', *, *, #723, .T. ) ;
#63 = DIRECTION ( 'NONE',  ( -0.000000000000000000, 1.000000000000000000, 0.000000000000000000 ) ) ;
#64 = FILL_AREA_STYLE ('',( #11 ) ) ;
#65 = CARTESIAN_POINT ( 'NONE',  ( 7.350000000000000533, 7.500000000000000000, 2.500000000000000000 ) ) ;
#66 = EDGE_CURVE ( 'NONE', #37, #342, #325, .T. ) ;
#67 = VECTOR ( 'NONE', #486, 1000.000000000000000 ) ;
#68 = DIRECTION ( 'NONE',  ( -0.000000000000000000, -0.000000000000000000, 1.000000000000000000 ) ) ;
#69 = VECTOR ( 'NONE', #6, 1000.000000000000000 ) ;
#70 = EDGE_LOOP ( 'NONE', ( #542, #181 ) ) ;
#71 = DIRECTION ( 'NONE',  ( -1.000000000000000000, 0.000000000000000000, 0.000000000000000000 ) ) ;
#72 = CARTESIAN_POINT ( 'NONE',  ( 3.200000000000001066, 4.500000000000000000, 0.000000000000000000 ) ) ;
#73 = ORIENTED_EDGE ( 'NONE', *, *, #222, .T. ) ;
#74 = APPLICATION_CONTEXT ( 'automotive_design' ) ;
#75 = DIRECTION ( 'NONE',  ( -0.000000000000000000, -1.000000000000000000, -0.000000000000000000 ) ) ;
#76 = CARTESIAN_POINT ( 'NONE',  ( 29.75000000000000355, 10.84999999999999964, 2.500000000000000000 ) ) ;
#77 = ORIENTED_EDGE ( 'NONE', *, *, #641, .F. ) ;
#78 = EDGE_CURVE ( 'NONE', #601, #162, #581, .T. ) ;
#79 = FACE_OUTER_BOUND ( 'NONE', #92, .T. ) ;
#80 = LINE ( 'NONE', #1, #656 ) ;
#81 = ORIENTED_EDGE ( 'NONE', *, *, #412, .T. ) ;
#82 = AXIS2_PLACEMENT_3D ( 'NONE', #211, #200, #158 ) ;
#83 = VECTOR ( 'NONE', #442, 1000.000000000000000 ) ;
#84 = EDGE_CURVE ( 'NONE', #479, #368, #14, .T. ) ;
#85 = AXIS2_PLACEMENT_3D ( 'NONE', #506, #286, #213 ) ;
#86 = CARTESIAN_POINT ( 'NONE',  ( 3.200000000000000178, 11.00000000000000000, -7.500000000000000000 ) ) ;
#87 = PLANE ( 'NONE',  #82 ) ;
#88 = VERTEX_POINT ( 'NONE', #7 ) ;
#89 = MANIFOLD_SOLID_BREP ( '\X2\52079664\X0\-\X2\62c94f38\X0\3', #575 ) ;
#90 = DIRECTION ( 'NONE',  ( -1.000000000000000000, -0.000000000000000000, -0.000000000000000000 ) ) ;
#91 = CARTESIAN_POINT ( 'NONE',  ( 11.04999999999999893, 10.84999999999999964, -7.500000000000000000 ) ) ;
#92 = EDGE_LOOP ( 'NONE', ( #212, #741, #416, #443 ) ) ;
#93 = DIRECTION ( 'NONE',  ( -0.000000000000000000, -0.000000000000000000, -1.000000000000000000 ) ) ;
#94 = LINE ( 'NONE', #20, #562 ) ;
#95 = ORIENTED_EDGE ( 'NONE', *, *, #78, .F. ) ;
#96 = AXIS2_PLACEMENT_3D ( 'NONE', #284, #621, #333 ) ;
#97 = LINE ( 'NONE', #26, #241 ) ;
#98 = FACE_OUTER_BOUND ( 'NONE', #209, .T. ) ;
#99 = ORIENTED_EDGE ( 'NONE', *, *, #78, .T. ) ;
#100 = DIRECTION ( 'NONE',  ( -1.000000000000000000, -0.000000000000000000, -0.000000000000000000 ) ) ;
#101 = CYLINDRICAL_SURFACE ( 'NONE', #410, 1.599999999999997202 ) ;
#102 = VERTEX_POINT ( 'NONE', #298 ) ;
#103 = DIRECTION ( 'NONE',  ( 0.000000000000000000, 0.000000000000000000, 1.000000000000000000 ) ) ;
#104 = LINE ( 'NONE', #336, #148 ) ;
#105 = VERTEX_POINT ( 'NONE', #142 ) ;
#106 = EDGE_CURVE ( 'NONE', #530, #574, #253, .T. ) ;
#107 =( NAMED_UNIT ( * ) PLANE_ANGLE_UNIT ( ) SI_UNIT ( $, .RADIAN. ) );
#108 = VECTOR ( 'NONE', #415, 1000.000000000000000 ) ;
#109 = VECTOR ( 'NONE', #688, 1000.000000000000000 ) ;
#110 = CARTESIAN_POINT ( 'NONE',  ( 9.899999999999998579, 10.84999999999999964, 2.500000000000000000 ) ) ;
#111 = VECTOR ( 'NONE', #594, 1000.000000000000000 ) ;
#112 = ORIENTED_EDGE ( 'NONE', *, *, #186, .T. ) ;
#113 = EDGE_CURVE ( 'NONE', #574, #607, #367, .T. ) ;
#114 = DIRECTION ( 'NONE',  ( -0.000000000000000000, -0.000000000000000000, -1.000000000000000000 ) ) ;
#115 = EDGE_CURVE ( 'NONE', #446, #219, #184, .T. ) ;
#116 = VERTEX_POINT ( 'NONE', #244 ) ;
#117 = ORIENTED_EDGE ( 'NONE', *, *, #246, .T. ) ;
#118 = CARTESIAN_POINT ( 'NONE',  ( 32.05000000000000426, 10.84999999999999964, -7.500000000000000000 ) ) ;
#119 = DIRECTION ( 'NONE',  ( 1.000000000000000000, 0.000000000000000000, 0.000000000000000000 ) ) ;
#120 = PRODUCT_DEFINITION ( 'æœ', '', #291, #525 ) ;
#121 = LINE ( 'NONE', #532, #634 ) ;
#122 = VECTOR ( 'NONE', #203, 1000.000000000000000 ) ;
#123 = LINE ( 'NONE', #642, #313 ) ;
#124 = VECTOR ( 'NONE', #114, 1000.000000000000000 ) ;
#125 = ADVANCED_FACE ( 'NONE', ( #445 ), #87, .T. ) ;
#126 = ORIENTED_EDGE ( 'NONE', *, *, #349, .F. ) ;
#127 = DIRECTION ( 'NONE',  ( -0.000000000000000000, -0.000000000000000000, 1.000000000000000000 ) ) ;
#128 = PRESENTATION_STYLE_ASSIGNMENT (( #696 ) ) ;
#129 = DIRECTION ( 'NONE',  ( 0.000000000000000000, 0.000000000000000000, -1.000000000000000000 ) ) ;
#130 = DIRECTION ( 'NONE',  ( -1.000000000000000000, 0.000000000000000000, 0.000000000000000000 ) ) ;
#131 = ORIENTED_EDGE ( 'NONE', *, *, #340, .T. ) ;
#132 = EDGE_CURVE ( 'NONE', #484, #137, #467, .T. ) ;
#133 = CARTESIAN_POINT ( 'NONE',  ( 5.750000000000000000, 7.500000000000000000, 0.000000000000000000 ) ) ;
#134 =( NAMED_UNIT ( * ) SI_UNIT ( $, .STERADIAN. ) SOLID_ANGLE_UNIT ( ) );
#135 = AXIS2_PLACEMENT_3D ( 'NONE', #739, #404, #347 ) ;
#136 = VECTOR ( 'NONE', #496, 1000.000000000000000 ) ;
#137 = VERTEX_POINT ( 'NONE', #208 ) ;
#138 = CARTESIAN_POINT ( 'NONE',  ( 49.29999999999999716, 4.500000000000000000, 2.500000000000000000 ) ) ;
#139 = DIRECTION ( 'NONE',  ( -0.000000000000000000, -0.000000000000000000, -1.000000000000000000 ) ) ;
#140 = ORIENTED_EDGE ( 'NONE', *, *, #356, .F. ) ;
#141 = CARTESIAN_POINT ( 'NONE',  ( 5.750000000000000000, 7.500000000000000000, 2.500000000000000000 ) ) ;
#142 = CARTESIAN_POINT ( 'NONE',  ( 49.29999999999999716, 15.00000000000000000, 2.500000000000000000 ) ) ;
#143 = VERTEX_POINT ( 'NONE', #725 ) ;
#144 = LINE ( 'NONE', #499, #458 ) ;
#145 = DIRECTION ( 'NONE',  ( 1.000000000000000000, 0.000000000000000000, 0.000000000000000000 ) ) ;
#146 = EDGE_CURVE ( 'NONE', #231, #607, #600, .T. ) ;
#147 = ORIENTED_EDGE ( 'NONE', *, *, #149, .F. ) ;
#148 = VECTOR ( 'NONE', #42, 1000.000000000000000 ) ;
#149 = EDGE_CURVE ( 'NONE', #162, #249, #312, .T. ) ;
#150 = AXIS2_PLACEMENT_3D ( 'NONE', #310, #653, #605 ) ;
#151 = CARTESIAN_POINT ( 'NONE',  ( 37.39999999999999858, 7.500000000000000000, 0.000000000000000000 ) ) ;
#152 = CARTESIAN_POINT ( 'NONE',  ( 0.000000000000000000, 15.00000000000000000, 2.500000000000000000 ) ) ;
#153 = ORIENTED_EDGE ( 'NONE', *, *, #677, .F. ) ;
#154 = DIRECTION ( 'NONE',  ( -0.000000000000000000, -0.000000000000000000, 1.000000000000000000 ) ) ;
#155 = DIRECTION ( 'NONE',  ( 0.000000000000000000, -1.000000000000000000, 0.000000000000000000 ) ) ;
#156 = ORIENTED_EDGE ( 'NONE', *, *, #84, .T. ) ;
#157 = DIRECTION ( 'NONE',  ( 0.000000000000000000, -0.000000000000000000, -1.000000000000000000 ) ) ;
#158 = DIRECTION ( 'NONE',  ( 1.334402673828313339E-16, 1.000000000000000000, 0.000000000000000000 ) ) ;
#159 = EDGE_LOOP ( 'NONE', ( #745, #315, #117, #334 ) ) ;
#160 = CIRCLE ( 'NONE', #135, 1.149999999999999911 ) ;
#161 = PLANE ( 'NONE',  #503 ) ;
#162 = VERTEX_POINT ( 'NONE', #500 ) ;
#163 = CARTESIAN_POINT ( 'NONE',  ( 0.000000000000000000, 0.000000000000000000, 0.000000000000000000 ) ) ;
#164 = CARTESIAN_POINT ( 'NONE',  ( 38.99999999999999289, 7.500000000000000000, 2.500000000000000000 ) ) ;
#165 = VERTEX_POINT ( 'NONE', #24 ) ;
#166 = ADVANCED_FACE ( 'NONE', ( #98 ), #161, .F. ) ;
#167 = DIRECTION ( 'NONE',  ( -1.000000000000000000, 0.000000000000000000, 0.000000000000000000 ) ) ;
#168 = ORIENTED_EDGE ( 'NONE', *, *, #692, .F. ) ;
#169 = EDGE_CURVE ( 'NONE', #498, #282, #388, .T. ) ;
#170 = PRESENTATION_LAYER_ASSIGNMENT (  '', '', ( #277 ) ) ;
#171 = FACE_BOUND ( 'NONE', #54, .T. ) ;
#172 = AXIS2_PLACEMENT_3D ( 'NONE', #363, #361, #418 ) ;
#173 = DIRECTION ( 'NONE',  ( 1.000000000000000000, 0.000000000000000000, 0.000000000000000000 ) ) ;
#174 = ORIENTED_EDGE ( 'NONE', *, *, #596, .F. ) ;
#175 = CARTESIAN_POINT ( 'NONE',  ( 0.000000000000000000, 15.00000000000000000, 0.000000000000000000 ) ) ;
#176 = ADVANCED_FACE ( 'NONE', ( #317 ), #554, .F. ) ;
#177 = CARTESIAN_POINT ( 'NONE',  ( 5.750000000000000000, 7.500000000000000000, 2.500000000000000000 ) ) ;
#178 = ORIENTED_EDGE ( 'NONE', *, *, #374, .F. ) ;
#179 = ORIENTED_EDGE ( 'NONE', *, *, #537, .F. ) ;
#180 = LINE ( 'NONE', #51, #576 ) ;
#181 = ORIENTED_EDGE ( 'NONE', *, *, #52, .F. ) ;
#182 = DIRECTION ( 'NONE',  ( 0.000000000000000000, 0.000000000000000000, -1.000000000000000000 ) ) ;
#183 = VECTOR ( 'NONE', #127, 1000.000000000000000 ) ;
#184 = LINE ( 'NONE', #3, #108 ) ;
#185 = CARTESIAN_POINT ( 'NONE',  ( 0.000000000000000000, 0.000000000000000000, 2.500000000000000000 ) ) ;
#186 = EDGE_CURVE ( 'NONE', #401, #710, #490, .T. ) ;
#187 = DIRECTION ( 'NONE',  ( 0.000000000000000000, -1.000000000000000000, -0.000000000000000000 ) ) ;
#188 = VERTEX_POINT ( 'NONE', #438 ) ;
#189 = CARTESIAN_POINT ( 'NONE',  ( 0.000000000000000000, 0.000000000000000000, 2.500000000000000000 ) ) ;
#190 = PRODUCT_DEFINITION_SHAPE ( 'NONE', 'NONE',  #120 ) ;
#191 = CARTESIAN_POINT ( 'NONE',  ( 9.899999999999998579, 10.84999999999999964, 0.000000000000000000 ) ) ;
#192 = CIRCLE ( 'NONE', #398, 1.150000000000001688 ) ;
#193 = ORIENTED_EDGE ( 'NONE', *, *, #186, .F. ) ;
#194 = DIRECTION ( 'NONE',  ( 0.000000000000000000, -0.000000000000000000, 1.000000000000000000 ) ) ;
#195 = EDGE_CURVE ( 'NONE', #44, #530, #94, .T. ) ;
#196 = DIRECTION ( 'NONE',  ( 0.000000000000000000, 0.000000000000000000, -1.000000000000000000 ) ) ;
#197 = EDGE_LOOP ( 'NONE', ( #718, #644, #652, #174 ) ) ;
#198 = CARTESIAN_POINT ( 'NONE',  ( 8.749999999999998224, 10.84999999999999964, -7.500000000000000000 ) ) ;
#199 = ADVANCED_FACE ( 'NONE', ( #709 ), #265, .F. ) ;
#200 = DIRECTION ( 'NONE',  ( 1.000000000000000000, -1.334402673828313339E-16, 0.000000000000000000 ) ) ;
#201 = ORIENTED_EDGE ( 'NONE', *, *, #243, .T. ) ;
#202 = CARTESIAN_POINT ( 'NONE',  ( 30.90000000000000213, 10.84999999999999964, -7.500000000000000000 ) ) ;
#203 = DIRECTION ( 'NONE',  ( 1.000000000000000000, 0.000000000000000000, 0.000000000000000000 ) ) ;
#204 = ORIENTED_EDGE ( 'NONE', *, *, #615, .F. ) ;
#205 = AXIS2_PLACEMENT_3D ( 'NONE', #191, #196, #301 ) ;
#206 = VECTOR ( 'NONE', #523, 1000.000000000000000 ) ;
#207 = DIRECTION ( 'NONE',  ( 0.000000000000000000, 0.000000000000000000, -1.000000000000000000 ) ) ;
#208 = CARTESIAN_POINT ( 'NONE',  ( 29.75000000000000355, 10.84999999999999964, 0.000000000000000000 ) ) ;
#209 = EDGE_LOOP ( 'NONE', ( #618, #73, #631, #39 ) ) ;
#210 = CARTESIAN_POINT ( 'NONE',  ( 7.960204194457795477E-16, 4.500000000000000000, 0.000000000000000000 ) ) ;
#211 = CARTESIAN_POINT ( 'NONE',  ( 46.09999999999999432, 11.00000000000000000, -7.500000000000000000 ) ) ;
#212 = ORIENTED_EDGE ( 'NONE', *, *, #115, .F. ) ;
#213 = DIRECTION ( 'NONE',  ( 1.000000000000000000, 0.000000000000000000, 0.000000000000000000 ) ) ;
#214 = EDGE_CURVE ( 'NONE', #368, #249, #324, .T. ) ;
#215 = CARTESIAN_POINT ( 'NONE',  ( 0.000000000000000000, 0.000000000000000000, 0.000000000000000000 ) ) ;
#216 = ORIENTED_EDGE ( 'NONE', *, *, #169, .T. ) ;
#217 = DIRECTION ( 'NONE',  ( 0.000000000000000000, 0.000000000000000000, 1.000000000000000000 ) ) ;
#218 = CARTESIAN_POINT ( 'NONE',  ( 49.29999999999999716, 0.000000000000000000, 2.500000000000000000 ) ) ;
#219 = VERTEX_POINT ( 'NONE', #660 ) ;
#220 = DIRECTION ( 'NONE',  ( -0.000000000000000000, -0.000000000000000000, 1.000000000000000000 ) ) ;
#221 = DIRECTION ( 'NONE',  ( 0.000000000000000000, 0.000000000000000000, -1.000000000000000000 ) ) ;
#222 = EDGE_CURVE ( 'NONE', #601, #102, #405, .T. ) ;
#223 = VERTEX_POINT ( 'NONE', #36 ) ;
#224 = PRODUCT_CONTEXT ( 'NONE', #667, 'mechanical' ) ;
#225 = LINE ( 'NONE', #518, #254 ) ;
#226 = ORIENTED_EDGE ( 'NONE', *, *, #132, .T. ) ;
#227 = EDGE_CURVE ( 'NONE', #669, #188, #609, .T. ) ;
#228 = FACE_OUTER_BOUND ( 'NONE', #686, .T. ) ;
#229 = AXIS2_PLACEMENT_3D ( 'NONE', #587, #187, #182 ) ;
#230 = CARTESIAN_POINT ( 'NONE',  ( 49.29999999999999716, 15.00000000000000000, 2.500000000000000000 ) ) ;
#231 = VERTEX_POINT ( 'NONE', #152 ) ;
#232 = EDGE_LOOP ( 'NONE', ( #226, #589, #514, #12 ) ) ;
#233 = CYLINDRICAL_SURFACE ( 'NONE', #278, 1.599999999999997202 ) ;
#234 = ORIENTED_EDGE ( 'NONE', *, *, #274, .T. ) ;
#235 = FACE_OUTER_BOUND ( 'NONE', #707, .T. ) ;
#236 = DIRECTION ( 'NONE',  ( 0.000000000000000000, 1.000000000000000000, 0.000000000000000000 ) ) ;
#237 = CARTESIAN_POINT ( 'NONE',  ( 49.29999999999999716, 11.00000000000000000, 2.500000000000000000 ) ) ;
#238 = VECTOR ( 'NONE', #400, 1000.000000000000000 ) ;
#239 = EDGE_CURVE ( 'NONE', #395, #105, #721, .T. ) ;
#240 = DIRECTION ( 'NONE',  ( -0.000000000000000000, -1.000000000000000000, -0.000000000000000000 ) ) ;
#241 = VECTOR ( 'NONE', #19, 1000.000000000000000 ) ;
#242 = DIRECTION ( 'NONE',  ( -1.000000000000000000, 0.000000000000000000, 0.000000000000000000 ) ) ;
#243 = EDGE_CURVE ( 'NONE', #309, #116, #385, .T. ) ;
#244 = CARTESIAN_POINT ( 'NONE',  ( 46.09999999999999432, 4.500000000000000000, 0.000000000000000000 ) ) ;
#245 = ORIENTED_EDGE ( 'NONE', *, *, #692, .T. ) ;
#246 = EDGE_CURVE ( 'NONE', #342, #612, #272, .T. ) ;
#247 = LINE ( 'NONE', #638, #58 ) ;
#248 = DIRECTION ( 'NONE',  ( -1.000000000000000000, 0.000000000000000000, 0.000000000000000000 ) ) ;
#249 = VERTEX_POINT ( 'NONE', #548 ) ;
#250 = ADVANCED_FACE ( 'NONE', ( #406 ), #233, .F. ) ;
#251 = FACE_OUTER_BOUND ( 'NONE', #689, .T. ) ;
#252 = VECTOR ( 'NONE', #541, 1000.000000000000000 ) ;
#253 = LINE ( 'NONE', #471, #432 ) ;
#254 = VECTOR ( 'NONE', #292, 1000.000000000000000 ) ;
#255 = AXIS2_PLACEMENT_3D ( 'NONE', #163, #335, #732 ) ;
#256 = ORIENTED_EDGE ( 'NONE', *, *, #516, .F. ) ;
#257 = ADVANCED_FACE ( 'NONE', ( #450 ), #736, .F. ) ;
#258 = CARTESIAN_POINT ( 'NONE',  ( 49.29999999999999716, 4.500000000000000000, -7.500000000000000000 ) ) ;
#259 = DIRECTION ( 'NONE',  ( -1.000000000000000000, 0.000000000000000000, 0.000000000000000000 ) ) ;
#260 = ORIENTED_EDGE ( 'NONE', *, *, #349, .T. ) ;
#261 = FACE_OUTER_BOUND ( 'NONE', #655, .T. ) ;
#262 = DIRECTION ( 'NONE',  ( 1.334402673828313339E-16, 1.000000000000000000, 0.000000000000000000 ) ) ;
#263 = ORIENTED_EDGE ( 'NONE', *, *, #222, .F. ) ;
#264 = LINE ( 'NONE', #258, #527 ) ;
#265 = PLANE ( 'NONE',  #526 ) ;
#266 = ADVANCED_FACE ( 'NONE', ( #459 ), #101, .F. ) ;
#267 = ORIENTED_EDGE ( 'NONE', *, *, #84, .F. ) ;
#268 = CARTESIAN_POINT ( 'NONE',  ( 11.04999999999999893, 10.84999999999999964, 2.500000000000000000 ) ) ;
#269 = CARTESIAN_POINT ( 'NONE',  ( 9.899999999999998579, 10.84999999999999964, -7.500000000000000000 ) ) ;
#270 = ORIENTED_EDGE ( 'NONE', *, *, #146, .T. ) ;
#271 = FACE_OUTER_BOUND ( 'NONE', #737, .T. ) ;
#272 = LINE ( 'NONE', #91, #371 ) ;
#273 = EDGE_LOOP ( 'NONE', ( #140, #487 ) ) ;
#274 = EDGE_CURVE ( 'NONE', #669, #88, #463, .T. ) ;
#275 = DIRECTION ( 'NONE',  ( 1.000000000000000000, 1.334402673828313339E-16, 0.000000000000000000 ) ) ;
#276 = ORIENTED_EDGE ( 'NONE', *, *, #695, .T. ) ;
#277 = STYLED_ITEM ( 'NONE', ( #128 ), #89 ) ;
#278 = AXIS2_PLACEMENT_3D ( 'NONE', #680, #281, #167 ) ;
#279 = EDGE_CURVE ( 'NONE', #116, #498, #567, .T. ) ;
#280 = FACE_OUTER_BOUND ( 'NONE', #159, .T. ) ;
#281 = DIRECTION ( 'NONE',  ( -0.000000000000000000, -0.000000000000000000, -1.000000000000000000 ) ) ;
#282 = VERTEX_POINT ( 'NONE', #57 ) ;
#283 = FACE_BOUND ( 'NONE', #70, .T. ) ;
#284 = CARTESIAN_POINT ( 'NONE',  ( 0.000000000000000000, 0.000000000000000000, 2.500000000000000000 ) ) ;
#285 = VERTEX_POINT ( 'NONE', #448 ) ;
#286 = DIRECTION ( 'NONE',  ( -0.000000000000000000, -0.000000000000000000, 1.000000000000000000 ) ) ;
#287 = CARTESIAN_POINT ( 'NONE',  ( 49.29999999999999716, 0.000000000000000000, 0.000000000000000000 ) ) ;
#288 = ORIENTED_EDGE ( 'NONE', *, *, #246, .F. ) ;
#289 = ORIENTED_EDGE ( 'NONE', *, *, #214, .F. ) ;
#290 = VECTOR ( 'NONE', #75, 1000.000000000000000 ) ;
#291 = PRODUCT_DEFINITION_FORMATION_WITH_SPECIFIED_SOURCE ( 'ä»', '', #444, .NOT_KNOWN. ) ;
#292 = DIRECTION ( 'NONE',  ( 1.334402673828313339E-16, -1.000000000000000000, 0.000000000000000000 ) ) ;
#293 = ORIENTED_EDGE ( 'NONE', *, *, #374, .T. ) ;
#294 = CARTESIAN_POINT ( 'NONE',  ( 32.05000000000000426, 10.84999999999999964, 0.000000000000000000 ) ) ;
#295 = ORIENTED_EDGE ( 'NONE', *, *, #520, .F. ) ;
#296 = EDGE_CURVE ( 'NONE', #105, #143, #38, .T. ) ;
#297 = LINE ( 'NONE', #632, #206 ) ;
#298 = CARTESIAN_POINT ( 'NONE',  ( 7.960204194457795477E-16, 4.500000000000000000, 2.500000000000000000 ) ) ;
#299 = EDGE_CURVE ( 'NONE', #102, #530, #676, .T. ) ;
#300 = FACE_OUTER_BOUND ( 'NONE', #690, .T. ) ;
#301 = DIRECTION ( 'NONE',  ( -1.000000000000000000, 0.000000000000000000, 0.000000000000000000 ) ) ;
#302 = ORIENTED_EDGE ( 'NONE', *, *, #296, .F. ) ;
#303 = CARTESIAN_POINT ( 'NONE',  ( 3.200000000000001066, 4.500000000000000000, 2.500000000000000000 ) ) ;
#304 = CARTESIAN_POINT ( 'NONE',  ( 0.000000000000000000, 0.000000000000000000, 2.500000000000000000 ) ) ;
#305 = EDGE_CURVE ( 'NONE', #446, #426, #740, .T. ) ;
#306 = ORIENTED_EDGE ( 'NONE', *, *, #60, .F. ) ;
#307 = CARTESIAN_POINT ( 'NONE',  ( 0.000000000000000000, 11.00000000000000000, -7.500000000000000000 ) ) ;
#308 = CARTESIAN_POINT ( 'NONE',  ( 8.749999999999998224, 10.84999999999999964, 0.000000000000000000 ) ) ;
#309 = VERTEX_POINT ( 'NONE', #626 ) ;
#310 = CARTESIAN_POINT ( 'NONE',  ( 0.000000000000000000, 0.000000000000000000, 2.500000000000000000 ) ) ;
#311 = AXIS2_PLACEMENT_3D ( 'NONE', #358, #364, #522 ) ;
#312 = LINE ( 'NONE', #215, #252 ) ;
#313 = VECTOR ( 'NONE', #580, 1000.000000000000000 ) ;
#314 = AXIS2_PLACEMENT_3D ( 'NONE', #727, #217, #393 ) ;
#315 = ORIENTED_EDGE ( 'NONE', *, *, #66, .T. ) ;
#316 = CYLINDRICAL_SURFACE ( 'NONE', #659, 1.599999999999999867 ) ;
#317 = FACE_OUTER_BOUND ( 'NONE', #536, .T. ) ;
#318 = ORIENTED_EDGE ( 'NONE', *, *, #677, .T. ) ;
#319 = FACE_BOUND ( 'NONE', #273, .T. ) ;
#320 = DIRECTION ( 'NONE',  ( -0.000000000000000000, -0.000000000000000000, 1.000000000000000000 ) ) ;
#321 = ORIENTED_EDGE ( 'NONE', *, *, #52, .T. ) ;
#322 = DIRECTION ( 'NONE',  ( -1.000000000000000000, 0.000000000000000000, 0.000000000000000000 ) ) ;
#323 = ADVANCED_FACE ( 'NONE', ( #508 ), #343, .F. ) ;
#324 = LINE ( 'NONE', #712, #67 ) ;
#325 = CIRCLE ( 'NONE', #205, 1.149999999999999911 ) ;
#326 = EDGE_LOOP ( 'NONE', ( #365, #552 ) ) ;
#327 = CIRCLE ( 'NONE', #30, 1.599999999999997202 ) ;
#328 = DIRECTION ( 'NONE',  ( -1.000000000000000000, 0.000000000000000000, 0.000000000000000000 ) ) ;
#329 = CARTESIAN_POINT ( 'NONE',  ( 46.09999999999999432, 11.00000000000000000, 2.500000000000000000 ) ) ;
#330 = ORIENTED_EDGE ( 'NONE', *, *, #699, .T. ) ;
#331 = EDGE_CURVE ( 'NONE', #137, #21, #180, .T. ) ;
#332 = LINE ( 'NONE', #175, #564 ) ;
#333 = DIRECTION ( 'NONE',  ( 0.000000000000000000, 0.000000000000000000, -1.000000000000000000 ) ) ;
#334 = ORIENTED_EDGE ( 'NONE', *, *, #356, .T. ) ;
#335 = DIRECTION ( 'NONE',  ( 0.000000000000000000, 0.000000000000000000, -1.000000000000000000 ) ) ;
#336 = CARTESIAN_POINT ( 'NONE',  ( 49.29999999999999716, 11.00000000000000000, 2.500000000000000000 ) ) ;
#337 = ORIENTED_EDGE ( 'NONE', *, *, #507, .T. ) ;
#338 = AXIS2_PLACEMENT_3D ( 'NONE', #414, #578, #242 ) ;
#339 = DIRECTION ( 'NONE',  ( 1.000000000000000000, 0.000000000000000000, 0.000000000000000000 ) ) ;
#340 = EDGE_CURVE ( 'NONE', #426, #446, #17, .T. ) ;
#341 = DIRECTION ( 'NONE',  ( 0.000000000000000000, 0.000000000000000000, 1.000000000000000000 ) ) ;
#342 = VERTEX_POINT ( 'NONE', #510 ) ;
#343 = PLANE ( 'NONE',  #96 ) ;
#344 = ORIENTED_EDGE ( 'NONE', *, *, #719, .T. ) ;
#345 = ORIENTED_EDGE ( 'NONE', *, *, #650, .F. ) ;
#346 = CYLINDRICAL_SURFACE ( 'NONE', #85, 1.149999999999999911 ) ;
#347 = DIRECTION ( 'NONE',  ( 1.000000000000000000, 0.000000000000000000, 0.000000000000000000 ) ) ;
#348 = ORIENTED_EDGE ( 'NONE', *, *, #723, .F. ) ;
#349 = EDGE_CURVE ( 'NONE', #285, #143, #684, .T. ) ;
#350 = AXIS2_PLACEMENT_3D ( 'NONE', #700, #68, #466 ) ;
#351 = VECTOR ( 'NONE', #573, 1000.000000000000000 ) ;
#352 = AXIS2_PLACEMENT_3D ( 'NONE', #202, #738, #403 ) ;
#353 = DIRECTION ( 'NONE',  ( 1.000000000000000000, 0.000000000000000000, 0.000000000000000000 ) ) ;
#354 = EDGE_LOOP ( 'NONE', ( #571, #289, #267, #81 ) ) ;
#355 = DIRECTION ( 'NONE',  ( 0.000000000000000000, 1.000000000000000000, 0.000000000000000000 ) ) ;
#356 = EDGE_CURVE ( 'NONE', #612, #675, #160, .T. ) ;
#357 = LINE ( 'NONE', #13, #290 ) ;
#358 = CARTESIAN_POINT ( 'NONE',  ( 49.29999999999999716, 4.500000000000000000, -7.500000000000000000 ) ) ;
#359 = EDGE_LOOP ( 'NONE', ( #131, #59 ) ) ;
#360 = AXIS2_PLACEMENT_3D ( 'NONE', #48, #730, #691 ) ;
#361 = DIRECTION ( 'NONE',  ( 0.000000000000000000, 0.000000000000000000, -1.000000000000000000 ) ) ;
#362 = ORIENTED_EDGE ( 'NONE', *, *, #407, .F. ) ;
#363 = CARTESIAN_POINT ( 'NONE',  ( 37.39999999999999858, 7.500000000000000000, 0.000000000000000000 ) ) ;
#364 = DIRECTION ( 'NONE',  ( 0.000000000000000000, 1.000000000000000000, 0.000000000000000000 ) ) ;
#365 = ORIENTED_EDGE ( 'NONE', *, *, #435, .F. ) ;
#366 = CARTESIAN_POINT ( 'NONE',  ( 0.000000000000000000, 15.00000000000000000, 2.500000000000000000 ) ) ;
#367 = LINE ( 'NONE', #595, #16 ) ;
#368 = VERTEX_POINT ( 'NONE', #218 ) ;
#369 = CARTESIAN_POINT ( 'NONE',  ( 5.750000000000000000, 7.500000000000000000, 0.000000000000000000 ) ) ;
#370 = DIRECTION ( 'NONE',  ( -1.000000000000000000, 0.000000000000000000, 0.000000000000000000 ) ) ;
#371 = VECTOR ( 'NONE', #320, 1000.000000000000000 ) ;
#372 = VECTOR ( 'NONE', #40, 1000.000000000000000 ) ;
#373 = ORIENTED_EDGE ( 'NONE', *, *, #274, .F. ) ;
#374 = EDGE_CURVE ( 'NONE', #710, #44, #225, .T. ) ;
#375 = DIRECTION ( 'NONE',  ( -1.000000000000000000, 0.000000000000000000, 0.000000000000000000 ) ) ;
#376 = CARTESIAN_POINT ( 'NONE',  ( 49.29999999999999716, 0.000000000000000000, 2.500000000000000000 ) ) ;
#377 = EDGE_LOOP ( 'NONE', ( #330, #628, #77, #504 ) ) ;
#378 = EDGE_CURVE ( 'NONE', #188, #669, #515, .T. ) ;
#379 = PLANE ( 'NONE',  #150 ) ;
#380 = EDGE_CURVE ( 'NONE', #282, #395, #104, .T. ) ;
#381 = DIRECTION ( 'NONE',  ( 0.000000000000000000, 0.000000000000000000, -1.000000000000000000 ) ) ;
#382 = ORIENTED_EDGE ( 'NONE', *, *, #384, .T. ) ;
#383 = DIRECTION ( 'NONE',  ( -0.000000000000000000, -0.000000000000000000, -1.000000000000000000 ) ) ;
#384 = EDGE_CURVE ( 'NONE', #675, #612, #468, .T. ) ;
#385 = LINE ( 'NONE', #610, #598 ) ;
#386 = ORIENTED_EDGE ( 'NONE', *, *, #239, .F. ) ;
#387 = AXIS2_PLACEMENT_3D ( 'NONE', #391, #221, #454 ) ;
#388 = LINE ( 'NONE', #329, #671 ) ;
#389 = EDGE_LOOP ( 'NONE', ( #348, #585 ) ) ;
#390 = LINE ( 'NONE', #735, #372 ) ;
#391 = CARTESIAN_POINT ( 'NONE',  ( 37.39999999999999858, 7.500000000000000000, 2.500000000000000000 ) ) ;
#392 = EDGE_LOOP ( 'NONE', ( #295, #204 ) ) ;
#393 = DIRECTION ( 'NONE',  ( 1.000000000000000000, 0.000000000000000000, 0.000000000000000000 ) ) ;
#394 = DIRECTION ( 'NONE',  ( -1.000000000000000000, 0.000000000000000000, 0.000000000000000000 ) ) ;
#395 = VERTEX_POINT ( 'NONE', #237 ) ;
#396 = AXIS2_PLACEMENT_3D ( 'NONE', #269, #606, #145 ) ;
#397 = AXIS2_PLACEMENT_3D ( 'NONE', #307, #63, #194 ) ;
#398 = AXIS2_PLACEMENT_3D ( 'NONE', #616, #103, #339 ) ;
#399 = APPLICATION_PROTOCOL_DEFINITION ( 'draft international standard', 'automotive_design', 1998, #667 ) ;
#400 = DIRECTION ( 'NONE',  ( -0.000000000000000000, -0.000000000000000000, 1.000000000000000000 ) ) ;
#401 = VERTEX_POINT ( 'NONE', #422 ) ;
#402 = ORIENTED_EDGE ( 'NONE', *, *, #429, .T. ) ;
#403 = DIRECTION ( 'NONE',  ( 1.000000000000000000, 0.000000000000000000, 0.000000000000000000 ) ) ;
#404 = DIRECTION ( 'NONE',  ( 0.000000000000000000, 0.000000000000000000, 1.000000000000000000 ) ) ;
#405 = LINE ( 'NONE', #551, #457 ) ;
#406 = FACE_OUTER_BOUND ( 'NONE', #25, .T. ) ;
#407 = EDGE_CURVE ( 'NONE', #572, #401, #357, .T. ) ;
#408 = ORIENTED_EDGE ( 'NONE', *, *, #472, .F. ) ;
#409 = VECTOR ( 'NONE', #651, 1000.000000000000000 ) ;
#410 = AXIS2_PLACEMENT_3D ( 'NONE', #513, #744, #394 ) ;
#411 = FACE_OUTER_BOUND ( 'NONE', #460, .T. ) ;
#412 = EDGE_CURVE ( 'NONE', #479, #162, #297, .T. ) ;
#413 = SURFACE_SIDE_STYLE ('',( #643 ) ) ;
#414 = CARTESIAN_POINT ( 'NONE',  ( 9.899999999999998579, 10.84999999999999964, 0.000000000000000000 ) ) ;
#415 = DIRECTION ( 'NONE',  ( -0.000000000000000000, -0.000000000000000000, -1.000000000000000000 ) ) ;
#416 = ORIENTED_EDGE ( 'NONE', *, *, #596, .T. ) ;
#417 = ADVANCED_FACE ( 'NONE', ( #251 ), #10, .F. ) ;
#418 = DIRECTION ( 'NONE',  ( -1.000000000000000000, 0.000000000000000000, 0.000000000000000000 ) ) ;
#419 = DIRECTION ( 'NONE',  ( 0.000000000000000000, 0.000000000000000000, -1.000000000000000000 ) ) ;
#420 = ORIENTED_EDGE ( 'NONE', *, *, #169, .F. ) ;
#421 =( GEOMETRIC_REPRESENTATION_CONTEXT ( 3 ) GLOBAL_UNCERTAINTY_ASSIGNED_CONTEXT ( ( #475 ) ) GLOBAL_UNIT_ASSIGNED_CONTEXT ( ( #474, #478, #134 ) ) REPRESENTATION_CONTEXT ( 'NONE', 'WORKASPACE' ) );
#422 = CARTESIAN_POINT ( 'NONE',  ( 0.000000000000000000, 11.00000000000000000, 0.000000000000000000 ) ) ;
#423 = ORIENTED_EDGE ( 'NONE', *, *, #195, .T. ) ;
#424 = LINE ( 'NONE', #649, #111 ) ;
#425 = PLANE ( 'NONE',  #311 ) ;
#426 = VERTEX_POINT ( 'NONE', #482 ) ;
#427 = CARTESIAN_POINT ( 'NONE',  ( 0.000000000000000000, 15.00000000000000000, 0.000000000000000000 ) ) ;
#428 = DIRECTION ( 'NONE',  ( 0.000000000000000000, 0.000000000000000000, -1.000000000000000000 ) ) ;
#429 = EDGE_CURVE ( 'NONE', #401, #607, #247, .T. ) ;
#430 = ORIENTED_EDGE ( 'NONE', *, *, #380, .T. ) ;
#431 = CARTESIAN_POINT ( 'NONE',  ( 3.200000000000000178, 11.00000000000000000, 2.500000000000000000 ) ) ;
#432 = VECTOR ( 'NONE', #483, 1000.000000000000000 ) ;
#433 = CARTESIAN_POINT ( 'NONE',  ( 0.000000000000000000, 0.000000000000000000, 2.500000000000000000 ) ) ;
#434 = VECTOR ( 'NONE', #119, 1000.000000000000000 ) ;
#435 = EDGE_CURVE ( 'NONE', #342, #37, #481, .T. ) ;
#436 = ORIENTED_EDGE ( 'NONE', *, *, #8, .T. ) ;
#437 = FACE_BOUND ( 'NONE', #389, .T. ) ;
#438 = CARTESIAN_POINT ( 'NONE',  ( 35.79999999999999716, 7.500000000000000000, 2.500000000000000000 ) ) ;
#439 = ORIENTED_EDGE ( 'NONE', *, *, #113, .T. ) ;
#440 = ADVANCED_FACE ( 'NONE', ( #2 ), #694, .F. ) ;
#441 = LINE ( 'NONE', #485, #540 ) ;
#442 = DIRECTION ( 'NONE',  ( 0.000000000000000000, 1.000000000000000000, 0.000000000000000000 ) ) ;
#443 = ORIENTED_EDGE ( 'NONE', *, *, #520, .T. ) ;
#444 = PRODUCT ( '\X2\75356c609ec4724776d6677f\X0\', '\X2\75356c609ec4724776d6677f\X0\', '', ( #224 ) ) ;
#445 = FACE_OUTER_BOUND ( 'NONE', #9, .T. ) ;
#446 = VERTEX_POINT ( 'NONE', #65 ) ;
#447 = AXIS2_PLACEMENT_3D ( 'NONE', #528, #703, #706 ) ;
#448 = CARTESIAN_POINT ( 'NONE',  ( 49.29999999999999716, 11.00000000000000000, 0.000000000000000000 ) ) ;
#449 = ORIENTED_EDGE ( 'NONE', *, *, #582, .F. ) ;
#450 = FACE_OUTER_BOUND ( 'NONE', #731, .T. ) ;
#451 = ORIENTED_EDGE ( 'NONE', *, *, #378, .F. ) ;
#452 = ADVANCED_FACE ( 'NONE', ( #300 ), #646, .F. ) ;
#453 = CARTESIAN_POINT ( 'NONE',  ( 4.150000000000000355, 7.500000000000000000, 0.000000000000000000 ) ) ;
#454 = DIRECTION ( 'NONE',  ( -1.000000000000000000, 0.000000000000000000, 0.000000000000000000 ) ) ;
#455 = ORIENTED_EDGE ( 'NONE', *, *, #378, .T. ) ;
#456 = EDGE_CURVE ( 'NONE', #21, #223, #672, .T. ) ;
#457 = VECTOR ( 'NONE', #497, 1000.000000000000000 ) ;
#458 = VECTOR ( 'NONE', #93, 1000.000000000000000 ) ;
#459 = FACE_OUTER_BOUND ( 'NONE', #614, .T. ) ;
#460 = EDGE_LOOP ( 'NONE', ( #665, #402, #15, #436 ) ) ;
#461 = UNCERTAINTY_MEASURE_WITH_UNIT (LENGTH_MEASURE( 1.000000000000000082E-05 ), #556, 'distance_accuracy_value', 'NONE');
#462 = ORIENTED_EDGE ( 'NONE', *, *, #472, .T. ) ;
#463 = LINE ( 'NONE', #164, #124 ) ;
#464 = ORIENTED_EDGE ( 'NONE', *, *, #27, .F. ) ;
#465 = PLANE ( 'NONE',  #229 ) ;
#466 = DIRECTION ( 'NONE',  ( 1.000000000000000000, 0.000000000000000000, 0.000000000000000000 ) ) ;
#467 = CIRCLE ( 'NONE', #714, 1.149999999999998135 ) ;
#468 = CIRCLE ( 'NONE', #538, 1.149999999999999911 ) ;
#469 = AXIS2_PLACEMENT_3D ( 'NONE', #608, #539, #157 ) ;
#470 = DIRECTION ( 'NONE',  ( -0.000000000000000000, -0.000000000000000000, 1.000000000000000000 ) ) ;
#471 = CARTESIAN_POINT ( 'NONE',  ( 3.200000000000000178, 11.00000000000000000, 2.500000000000000000 ) ) ;
#472 = EDGE_CURVE ( 'NONE', #102, #479, #123, .T. ) ;
#473 = CARTESIAN_POINT ( 'NONE',  ( 0.000000000000000000, 0.000000000000000000, 2.500000000000000000 ) ) ;
#474 =( LENGTH_UNIT ( ) NAMED_UNIT ( * ) SI_UNIT ( .MILLI., .METRE. ) );
#475 = UNCERTAINTY_MEASURE_WITH_UNIT (LENGTH_MEASURE( 1.000000000000000082E-05 ), #474, 'distance_accuracy_value', 'NONE');
#476 = ORIENTED_EDGE ( 'NONE', *, *, #113, .F. ) ;
#477 = DIRECTION ( 'NONE',  ( 0.000000000000000000, -0.000000000000000000, 1.000000000000000000 ) ) ;
#478 =( NAMED_UNIT ( * ) PLANE_ANGLE_UNIT ( ) SI_UNIT ( $, .RADIAN. ) );
#479 = VERTEX_POINT ( 'NONE', #189 ) ;
#480 = VECTOR ( 'NONE', #130, 1000.000000000000000 ) ;
#481 = CIRCLE ( 'NONE', #338, 1.149999999999999911 ) ;
#482 = CARTESIAN_POINT ( 'NONE',  ( 4.150000000000000355, 7.500000000000000000, 2.500000000000000000 ) ) ;
#483 = DIRECTION ( 'NONE',  ( -1.334402673828313339E-16, 1.000000000000000000, -0.000000000000000000 ) ) ;
#484 = VERTEX_POINT ( 'NONE', #294 ) ;
#485 = CARTESIAN_POINT ( 'NONE',  ( 49.29999999999999716, 4.500000000000000000, 2.500000000000000000 ) ) ;
#486 = DIRECTION ( 'NONE',  ( -0.000000000000000000, -0.000000000000000000, -1.000000000000000000 ) ) ;
#487 = ORIENTED_EDGE ( 'NONE', *, *, #384, .F. ) ;
#488 = CYLINDRICAL_SURFACE ( 'NONE', #352, 1.150000000000001688 ) ;
#489 = ADVANCED_FACE ( 'NONE', ( #411 ), #583, .F. ) ;
#490 = LINE ( 'NONE', #613, #122 ) ;
#491 = ORIENTED_EDGE ( 'NONE', *, *, #637, .F. ) ;
#492 = CARTESIAN_POINT ( 'NONE',  ( 0.000000000000000000, 11.00000000000000000, 2.500000000000000000 ) ) ;
#493 = AXIS2_PLACEMENT_3D ( 'NONE', #701, #534, #698 ) ;
#494 = DIRECTION ( 'NONE',  ( -0.000000000000000000, -1.000000000000000000, -0.000000000000000000 ) ) ;
#495 = ORIENTED_EDGE ( 'NONE', *, *, #429, .F. ) ;
#496 = DIRECTION ( 'NONE',  ( -0.000000000000000000, -0.000000000000000000, 1.000000000000000000 ) ) ;
#497 = DIRECTION ( 'NONE',  ( -0.000000000000000000, -0.000000000000000000, 1.000000000000000000 ) ) ;
#498 = VERTEX_POINT ( 'NONE', #61 ) ;
#499 = CARTESIAN_POINT ( 'NONE',  ( 4.150000000000000355, 7.500000000000000000, 2.500000000000000000 ) ) ;
#500 = CARTESIAN_POINT ( 'NONE',  ( 0.000000000000000000, 0.000000000000000000, 0.000000000000000000 ) ) ;
#501 = VERTEX_POINT ( 'NONE', #138 ) ;
#502 = CARTESIAN_POINT ( 'NONE',  ( 7.960204194457795477E-16, 4.500000000000000000, 2.500000000000000000 ) ) ;
#503 = AXIS2_PLACEMENT_3D ( 'NONE', #28, #155, #674 ) ;
#504 = ORIENTED_EDGE ( 'NONE', *, *, #296, .T. ) ;
#505 = CIRCLE ( 'NONE', #172, 1.599999999999997202 ) ;
#506 = CARTESIAN_POINT ( 'NONE',  ( 9.899999999999998579, 10.84999999999999964, -7.500000000000000000 ) ) ;
#507 = EDGE_CURVE ( 'NONE', #188, #165, #521, .T. ) ;
#508 = FACE_OUTER_BOUND ( 'NONE', #33, .T. ) ;
#509 = ORIENTED_EDGE ( 'NONE', *, *, #106, .F. ) ;
#510 = CARTESIAN_POINT ( 'NONE',  ( 11.04999999999999893, 10.84999999999999964, 0.000000000000000000 ) ) ;
#511 = ADVANCED_FACE ( 'NONE', ( #235 ), #465, .T. ) ;
#512 = ORIENTED_EDGE ( 'NONE', *, *, #641, .T. ) ;
#513 = CARTESIAN_POINT ( 'NONE',  ( 37.39999999999999858, 7.500000000000000000, 2.500000000000000000 ) ) ;
#514 = ORIENTED_EDGE ( 'NONE', *, *, #456, .T. ) ;
#515 = CIRCLE ( 'NONE', #387, 1.599999999999997202 ) ;
#516 = EDGE_CURVE ( 'NONE', #88, #165, #505, .T. ) ;
#517 = ORIENTED_EDGE ( 'NONE', *, *, #673, .T. ) ;
#518 = CARTESIAN_POINT ( 'NONE',  ( 3.200000000000001510, 4.270088556250604658E-16, 0.000000000000000000 ) ) ;
#519 = ORIENTED_EDGE ( 'NONE', *, *, #516, .T. ) ;
#520 = EDGE_CURVE ( 'NONE', #693, #219, #645, .T. ) ;
#521 = LINE ( 'NONE', #747, #69 ) ;
#522 = DIRECTION ( 'NONE',  ( 0.000000000000000000, -0.000000000000000000, 1.000000000000000000 ) ) ;
#523 = DIRECTION ( 'NONE',  ( -0.000000000000000000, -0.000000000000000000, -1.000000000000000000 ) ) ;
#524 = DIRECTION ( 'NONE',  ( -1.000000000000000000, -0.000000000000000000, -0.000000000000000000 ) ) ;
#525 = PRODUCT_DEFINITION_CONTEXT ( 'detailed design', #74, 'design' ) ;
#526 = AXIS2_PLACEMENT_3D ( 'NONE', #545, #259, #717 ) ;
#527 = VECTOR ( 'NONE', #708, 1000.000000000000000 ) ;
#528 = CARTESIAN_POINT ( 'NONE',  ( 49.29999999999999716, 0.000000000000000000, 2.500000000000000000 ) ) ;
#529 = CARTESIAN_POINT ( 'NONE',  ( 0.000000000000000000, 4.500000000000000000, 0.000000000000000000 ) ) ;
#530 = VERTEX_POINT ( 'NONE', #303 ) ;
#531 = LINE ( 'NONE', #635, #183 ) ;
#532 = CARTESIAN_POINT ( 'NONE',  ( 0.000000000000000000, 15.00000000000000000, 2.500000000000000000 ) ) ;
#533 = ORIENTED_EDGE ( 'NONE', *, *, #435, .T. ) ;
#534 = DIRECTION ( 'NONE',  ( 0.000000000000000000, 0.000000000000000000, 1.000000000000000000 ) ) ;
#535 = CARTESIAN_POINT ( 'NONE',  ( 0.000000000000000000, 0.000000000000000000, 0.000000000000000000 ) ) ;
#536 = EDGE_LOOP ( 'NONE', ( #533, #549, #382, #288 ) ) ;
#537 = EDGE_CURVE ( 'NONE', #285, #395, #531, .T. ) ;
#538 = AXIS2_PLACEMENT_3D ( 'NONE', #110, #341, #173 ) ;
#539 = DIRECTION ( 'NONE',  ( 0.000000000000000000, -1.000000000000000000, 0.000000000000000000 ) ) ;
#540 = VECTOR ( 'NONE', #322, 1000.000000000000000 ) ;
#541 = DIRECTION ( 'NONE',  ( 1.000000000000000000, 0.000000000000000000, 0.000000000000000000 ) ) ;
#542 = ORIENTED_EDGE ( 'NONE', *, *, #132, .F. ) ;
#543 = EDGE_CURVE ( 'NONE', #37, #675, #553, .T. ) ;
#544 = CARTESIAN_POINT ( 'NONE',  ( 38.99999999999999289, 7.500000000000000000, 2.500000000000000000 ) ) ;
#545 = CARTESIAN_POINT ( 'NONE',  ( 49.29999999999999716, 0.000000000000000000, 2.500000000000000000 ) ) ;
#546 = ORIENTED_EDGE ( 'NONE', *, *, #27, .T. ) ;
#547 = CARTESIAN_POINT ( 'NONE',  ( 5.750000000000000000, 7.500000000000000000, 2.500000000000000000 ) ) ;
#548 = CARTESIAN_POINT ( 'NONE',  ( 49.29999999999999716, 0.000000000000000000, 0.000000000000000000 ) ) ;
#549 = ORIENTED_EDGE ( 'NONE', *, *, #543, .T. ) ;
#550 = LINE ( 'NONE', #366, #43 ) ;
#551 = CARTESIAN_POINT ( 'NONE',  ( 7.960204194457795477E-16, 4.500000000000000000, -7.500000000000000000 ) ) ;
#552 = ORIENTED_EDGE ( 'NONE', *, *, #66, .F. ) ;
#553 = LINE ( 'NONE', #198, #586 ) ;
#554 = CYLINDRICAL_SURFACE ( 'NONE', #396, 1.149999999999999911 ) ;
#555 = ORIENTED_EDGE ( 'NONE', *, *, #699, .F. ) ;
#556 =( LENGTH_UNIT ( ) NAMED_UNIT ( * ) SI_UNIT ( .MILLI., .METRE. ) );
#557 = DIRECTION ( 'NONE',  ( 0.000000000000000000, 0.000000000000000000, -1.000000000000000000 ) ) ;
#558 = ORIENTED_EDGE ( 'NONE', *, *, #412, .F. ) ;
#559 = EDGE_CURVE ( 'NONE', #165, #88, #327, .T. ) ;
#560 = LINE ( 'NONE', #118, #18 ) ;
#561 = DIRECTION ( 'NONE',  ( -0.000000000000000000, -0.000000000000000000, 1.000000000000000000 ) ) ;
#562 = VECTOR ( 'NONE', #664, 1000.000000000000000 ) ;
#563 = ORIENTED_EDGE ( 'NONE', *, *, #279, .F. ) ;
#564 = VECTOR ( 'NONE', #100, 1000.000000000000000 ) ;
#565 = ADVANCED_FACE ( 'NONE', ( #79 ), #22, .F. ) ;
#566 = CARTESIAN_POINT ( 'NONE',  ( 3.200000000000000178, 11.00000000000000000, 0.000000000000000000 ) ) ;
#567 = LINE ( 'NONE', #617, #238 ) ;
#568 = ORIENTED_EDGE ( 'NONE', *, *, #299, .F. ) ;
#569 = FACE_BOUND ( 'NONE', #326, .T. ) ;
#570 = CARTESIAN_POINT ( 'NONE',  ( 3.200000000000000178, 11.00000000000000000, -7.500000000000000000 ) ) ;
#571 = ORIENTED_EDGE ( 'NONE', *, *, #149, .T. ) ;
#572 = VERTEX_POINT ( 'NONE', #427 ) ;
#573 = DIRECTION ( 'NONE',  ( -0.000000000000000000, -0.000000000000000000, -1.000000000000000000 ) ) ;
#574 = VERTEX_POINT ( 'NONE', #431 ) ;
#575 = CLOSED_SHELL ( 'NONE', ( #176, #34, #647, #266, #199, #417, #592, #682, #489, #323, #440, #662, #250, #565, #452, #257, #166, #23, #125, #511, #679, #746 ) ) ;
#576 = VECTOR ( 'NONE', #561, 1000.000000000000000 ) ;
#577 = CIRCLE ( 'NONE', #611, 1.599999999999999867 ) ;
#578 = DIRECTION ( 'NONE',  ( 0.000000000000000000, 0.000000000000000000, -1.000000000000000000 ) ) ;
#579 = ORIENTED_EDGE ( 'NONE', *, *, #582, .T. ) ;
#580 = DIRECTION ( 'NONE',  ( -0.000000000000000000, -1.000000000000000000, -0.000000000000000000 ) ) ;
#581 = LINE ( 'NONE', #535, #728 ) ;
#582 = EDGE_CURVE ( 'NONE', #501, #498, #441, .T. ) ;
#583 = PLANE ( 'NONE',  #729 ) ;
#584 = CYLINDRICAL_SURFACE ( 'NONE', #350, 1.150000000000001688 ) ;
#585 = ORIENTED_EDGE ( 'NONE', *, *, #456, .F. ) ;
#586 = VECTOR ( 'NONE', #154, 1000.000000000000000 ) ;
#587 = CARTESIAN_POINT ( 'NONE',  ( 49.29999999999999716, 11.00000000000000000, -7.500000000000000000 ) ) ;
#588 = FACE_OUTER_BOUND ( 'NONE', #722, .T. ) ;
#589 = ORIENTED_EDGE ( 'NONE', *, *, #331, .T. ) ;
#590 = DIRECTION ( 'NONE',  ( 0.000000000000000000, 0.000000000000000000, -1.000000000000000000 ) ) ;
#591 = LINE ( 'NONE', #529, #480 ) ;
#592 = ADVANCED_FACE ( 'NONE', ( #319, #437, #663, #599, #271 ), #379, .F. ) ;
#593 = ORIENTED_EDGE ( 'NONE', *, *, #507, .F. ) ;
#594 = DIRECTION ( 'NONE',  ( 1.000000000000000000, -0.000000000000000000, 0.000000000000000000 ) ) ;
#595 = CARTESIAN_POINT ( 'NONE',  ( 0.000000000000000000, 11.00000000000000000, 2.500000000000000000 ) ) ;
#596 = EDGE_CURVE ( 'NONE', #426, #693, #144, .T. ) ;
#597 = ORIENTED_EDGE ( 'NONE', *, *, #695, .F. ) ;
#598 = VECTOR ( 'NONE', #603, 1000.000000000000000 ) ;
#599 = FACE_BOUND ( 'NONE', #359, .T. ) ;
#600 = LINE ( 'NONE', #433, #4 ) ;
#601 = VERTEX_POINT ( 'NONE', #210 ) ;
#602 = LINE ( 'NONE', #86, #136 ) ;
#603 = DIRECTION ( 'NONE',  ( -1.334402673828313339E-16, -1.000000000000000000, 0.000000000000000000 ) ) ;
#604 = ORIENTED_EDGE ( 'NONE', *, *, #239, .T. ) ;
#605 = DIRECTION ( 'NONE',  ( -1.000000000000000000, 0.000000000000000000, -0.000000000000000000 ) ) ;
#606 = DIRECTION ( 'NONE',  ( -0.000000000000000000, -0.000000000000000000, 1.000000000000000000 ) ) ;
#607 = VERTEX_POINT ( 'NONE', #492 ) ;
#608 = CARTESIAN_POINT ( 'NONE',  ( 0.000000000000000000, 15.00000000000000000, 2.500000000000000000 ) ) ;
#609 = CIRCLE ( 'NONE', #705, 1.599999999999997202 ) ;
#610 = CARTESIAN_POINT ( 'NONE',  ( 46.09999999999999432, -6.151596326348524469E-15, 0.000000000000000000 ) ) ;
#611 = AXIS2_PLACEMENT_3D ( 'NONE', #369, #724, #375 ) ;
#612 = VERTEX_POINT ( 'NONE', #268 ) ;
#613 = CARTESIAN_POINT ( 'NONE',  ( 0.000000000000000000, 11.00000000000000000, 0.000000000000000000 ) ) ;
#614 = EDGE_LOOP ( 'NONE', ( #704, #234, #519, #593 ) ) ;
#615 = EDGE_CURVE ( 'NONE', #219, #693, #577, .T. ) ;
#616 = CARTESIAN_POINT ( 'NONE',  ( 30.90000000000000213, 10.84999999999999964, 2.500000000000000000 ) ) ;
#617 = CARTESIAN_POINT ( 'NONE',  ( 46.09999999999999432, 4.500000000000000000, -7.500000000000000000 ) ) ;
#618 = ORIENTED_EDGE ( 'NONE', *, *, #60, .T. ) ;
#619 = SHAPE_DEFINITION_REPRESENTATION ( #190, #46 ) ;
#620 = MECHANICAL_DESIGN_GEOMETRIC_PRESENTATION_REPRESENTATION (  '', ( #277 ), #421 ) ;
#621 = DIRECTION ( 'NONE',  ( 1.000000000000000000, 0.000000000000000000, 0.000000000000000000 ) ) ;
#622 = COLOUR_RGB ( '',0.7921568627450980005, 0.8196078431372548767, 0.9333333333333333481 ) ;
#623 = ORIENTED_EDGE ( 'NONE', *, *, #331, .F. ) ;
#624 = AXIS2_PLACEMENT_3D ( 'NONE', #570, #275, #733 ) ;
#625 = APPLICATION_PROTOCOL_DEFINITION ( 'draft international standard', 'automotive_design', 1998, #74 ) ;
#626 = CARTESIAN_POINT ( 'NONE',  ( 46.09999999999999432, 11.00000000000000000, 0.000000000000000000 ) ) ;
#627 = ORIENTED_EDGE ( 'NONE', *, *, #559, .F. ) ;
#628 = ORIENTED_EDGE ( 'NONE', *, *, #8, .F. ) ;
#629 = DIRECTION ( 'NONE',  ( -0.000000000000000000, -0.000000000000000000, 1.000000000000000000 ) ) ;
#630 = DIRECTION ( 'NONE',  ( -1.000000000000000000, 0.000000000000000000, 0.000000000000000000 ) ) ;
#631 = ORIENTED_EDGE ( 'NONE', *, *, #299, .T. ) ;
#632 = CARTESIAN_POINT ( 'NONE',  ( 0.000000000000000000, 0.000000000000000000, 2.500000000000000000 ) ) ;
#633 = ORIENTED_EDGE ( 'NONE', *, *, #380, .F. ) ;
#634 = VECTOR ( 'NONE', #139, 1000.000000000000000 ) ;
#635 = CARTESIAN_POINT ( 'NONE',  ( 49.29999999999999716, 11.00000000000000000, -7.500000000000000000 ) ) ;
#636 = FACE_OUTER_BOUND ( 'NONE', #232, .T. ) ;
#637 = EDGE_CURVE ( 'NONE', #710, #574, #602, .T. ) ;
#638 = CARTESIAN_POINT ( 'NONE',  ( 0.000000000000000000, 11.00000000000000000, -7.500000000000000000 ) ) ;
#639 = CARTESIAN_POINT ( 'NONE',  ( 30.90000000000000213, 10.84999999999999964, 0.000000000000000000 ) ) ;
#640 = EDGE_LOOP ( 'NONE', ( #318, #464, #734, #517 ) ) ;
#641 = EDGE_CURVE ( 'NONE', #105, #231, #550, .T. ) ;
#642 = CARTESIAN_POINT ( 'NONE',  ( 0.000000000000000000, 0.000000000000000000, 2.500000000000000000 ) ) ;
#643 = SURFACE_STYLE_FILL_AREA ( #64 ) ;
#644 = ORIENTED_EDGE ( 'NONE', *, *, #115, .T. ) ;
#645 = CIRCLE ( 'NONE', #685, 1.599999999999999867 ) ;
#646 = PLANE ( 'NONE',  #397 ) ;
#647 = ADVANCED_FACE ( 'NONE', ( #720 ), #316, .F. ) ;
#648 = ORIENTED_EDGE ( 'NONE', *, *, #650, .T. ) ;
#649 = CARTESIAN_POINT ( 'NONE',  ( 0.000000000000000000, 4.500000000000000000, 0.000000000000000000 ) ) ;
#650 = EDGE_CURVE ( 'NONE', #116, #713, #424, .T. ) ;
#651 = DIRECTION ( 'NONE',  ( 1.000000000000000000, 0.000000000000000000, 0.000000000000000000 ) ) ;
#652 = ORIENTED_EDGE ( 'NONE', *, *, #615, .T. ) ;
#653 = DIRECTION ( 'NONE',  ( 0.000000000000000000, 0.000000000000000000, -1.000000000000000000 ) ) ;
#654 = DIRECTION ( 'NONE',  ( -1.000000000000000000, 0.000000000000000000, 0.000000000000000000 ) ) ;
#655 = EDGE_LOOP ( 'NONE', ( #623, #321, #344, #62 ) ) ;
#656 = VECTOR ( 'NONE', #236, 1000.000000000000000 ) ;
#657 = AXIS2_PLACEMENT_3D ( 'NONE', #177, #557, #630 ) ;
#658 = CARTESIAN_POINT ( 'NONE',  ( 8.749999999999998224, 10.84999999999999964, 2.500000000000000000 ) ) ;
#659 = AXIS2_PLACEMENT_3D ( 'NONE', #547, #383, #328 ) ;
#660 = CARTESIAN_POINT ( 'NONE',  ( 7.350000000000000533, 7.500000000000000000, 0.000000000000000000 ) ) ;
#661 = EDGE_LOOP ( 'NONE', ( #455, #743 ) ) ;
#662 = ADVANCED_FACE ( 'NONE', ( #666 ), #35, .F. ) ;
#663 = FACE_BOUND ( 'NONE', #661, .T. ) ;
#664 = DIRECTION ( 'NONE',  ( -0.000000000000000000, -0.000000000000000000, 1.000000000000000000 ) ) ;
#665 = ORIENTED_EDGE ( 'NONE', *, *, #407, .T. ) ;
#666 = FACE_OUTER_BOUND ( 'NONE', #377, .T. ) ;
#667 = APPLICATION_CONTEXT ( 'automotive_design' ) ;
#668 = CARTESIAN_POINT ( 'NONE',  ( 37.39999999999999858, 7.500000000000000000, 2.500000000000000000 ) ) ;
#669 = VERTEX_POINT ( 'NONE', #544 ) ;
#670 = PLANE ( 'NONE',  #255 ) ;
#671 = VECTOR ( 'NONE', #262, 1000.000000000000000 ) ;
#672 = CIRCLE ( 'NONE', #493, 1.150000000000001688 ) ;
#673 = EDGE_CURVE ( 'NONE', #249, #713, #97, .T. ) ;
#674 = DIRECTION ( 'NONE',  ( 0.000000000000000000, -0.000000000000000000, -1.000000000000000000 ) ) ;
#675 = VERTEX_POINT ( 'NONE', #658 ) ;
#676 = LINE ( 'NONE', #502, #434 ) ;
#677 = EDGE_CURVE ( 'NONE', #713, #501, #264, .T. ) ;
#678 = ORIENTED_EDGE ( 'NONE', *, *, #637, .T. ) ;
#679 = ADVANCED_FACE ( 'NONE', ( #261 ), #488, .F. ) ;
#680 = CARTESIAN_POINT ( 'NONE',  ( 37.39999999999999858, 7.500000000000000000, 2.500000000000000000 ) ) ;
#681 = ORIENTED_EDGE ( 'NONE', *, *, #537, .T. ) ;
#682 = ADVANCED_FACE ( 'NONE', ( #569, #283, #687, #171, #228 ), #670, .T. ) ;
#683 = CARTESIAN_POINT ( 'NONE',  ( 49.29999999999999716, 4.500000000000000000, 0.000000000000000000 ) ) ;
#684 = LINE ( 'NONE', #287, #109 ) ;
#685 = AXIS2_PLACEMENT_3D ( 'NONE', #133, #590, #71 ) ;
#686 = EDGE_LOOP ( 'NONE', ( #201, #648, #726, #147, #95, #306, #178, #193, #362, #555, #126, #276 ) ) ;
#687 = FACE_BOUND ( 'NONE', #392, .T. ) ;
#688 = DIRECTION ( 'NONE',  ( 0.000000000000000000, 1.000000000000000000, 0.000000000000000000 ) ) ;
#689 = EDGE_LOOP ( 'NONE', ( #179, #260, #302, #386 ) ) ;
#690 = EDGE_LOOP ( 'NONE', ( #112, #678, #439, #495 ) ) ;
#691 = DIRECTION ( 'NONE',  ( -1.000000000000000000, 0.000000000000000000, 0.000000000000000000 ) ) ;
#692 = EDGE_CURVE ( 'NONE', #309, #282, #50, .T. ) ;
#693 = VERTEX_POINT ( 'NONE', #453 ) ;
#694 = PLANE ( 'NONE',  #715 ) ;
#695 = EDGE_CURVE ( 'NONE', #285, #309, #390, .T. ) ;
#696 = SURFACE_STYLE_USAGE ( .BOTH. , #413 ) ;
#697 = AXIS2_PLACEMENT_3D ( 'NONE', #141, #31, #711 ) ;
#698 = DIRECTION ( 'NONE',  ( 1.000000000000000000, 0.000000000000000000, 0.000000000000000000 ) ) ;
#699 = EDGE_CURVE ( 'NONE', #143, #572, #332, .T. ) ;
#700 = CARTESIAN_POINT ( 'NONE',  ( 30.90000000000000213, 10.84999999999999964, -7.500000000000000000 ) ) ;
#701 = CARTESIAN_POINT ( 'NONE',  ( 30.90000000000000213, 10.84999999999999964, 2.500000000000000000 ) ) ;
#702 = ORIENTED_EDGE ( 'NONE', *, *, #559, .T. ) ;
#703 = DIRECTION ( 'NONE',  ( -1.000000000000000000, 0.000000000000000000, 0.000000000000000000 ) ) ;
#704 = ORIENTED_EDGE ( 'NONE', *, *, #227, .F. ) ;
#705 = AXIS2_PLACEMENT_3D ( 'NONE', #668, #428, #370 ) ;
#706 = DIRECTION ( 'NONE',  ( 0.000000000000000000, 0.000000000000000000, 1.000000000000000000 ) ) ;
#707 = EDGE_LOOP ( 'NONE', ( #681, #633, #168, #597 ) ) ;
#708 = DIRECTION ( 'NONE',  ( -0.000000000000000000, -0.000000000000000000, 1.000000000000000000 ) ) ;
#709 = FACE_OUTER_BOUND ( 'NONE', #640, .T. ) ;
#710 = VERTEX_POINT ( 'NONE', #566 ) ;
#711 = DIRECTION ( 'NONE',  ( -1.000000000000000000, 0.000000000000000000, 0.000000000000000000 ) ) ;
#712 = CARTESIAN_POINT ( 'NONE',  ( 49.29999999999999716, 0.000000000000000000, 2.500000000000000000 ) ) ;
#713 = VERTEX_POINT ( 'NONE', #683 ) ;
#714 = AXIS2_PLACEMENT_3D ( 'NONE', #32, #381, #654 ) ;
#715 = AXIS2_PLACEMENT_3D ( 'NONE', #473, #355, #477 ) ;
#716 = DIRECTION ( 'NONE',  ( -1.000000000000000000, 0.000000000000000000, 0.000000000000000000 ) ) ;
#717 = DIRECTION ( 'NONE',  ( 0.000000000000000000, 0.000000000000000000, 1.000000000000000000 ) ) ;
#718 = ORIENTED_EDGE ( 'NONE', *, *, #305, .F. ) ;
#719 = EDGE_CURVE ( 'NONE', #484, #223, #560, .T. ) ;
#720 = FACE_OUTER_BOUND ( 'NONE', #197, .T. ) ;
#721 = LINE ( 'NONE', #376, #83 ) ;
#722 = EDGE_LOOP ( 'NONE', ( #49, #449, #153, #345 ) ) ;
#723 = EDGE_CURVE ( 'NONE', #223, #21, #192, .T. ) ;
#724 = DIRECTION ( 'NONE',  ( 0.000000000000000000, 0.000000000000000000, -1.000000000000000000 ) ) ;
#725 = CARTESIAN_POINT ( 'NONE',  ( 49.29999999999999716, 15.00000000000000000, 0.000000000000000000 ) ) ;
#726 = ORIENTED_EDGE ( 'NONE', *, *, #673, .F. ) ;
#727 = CARTESIAN_POINT ( 'NONE',  ( 0.000000000000000000, 0.000000000000000000, 0.000000000000000000 ) ) ;
#728 = VECTOR ( 'NONE', #240, 1000.000000000000000 ) ;
#729 = AXIS2_PLACEMENT_3D ( 'NONE', #185, #353, #129 ) ;
#730 = DIRECTION ( 'NONE',  ( 0.000000000000000000, 0.000000000000000000, -1.000000000000000000 ) ) ;
#731 = EDGE_LOOP ( 'NONE', ( #293, #423, #53, #491 ) ) ;
#732 = DIRECTION ( 'NONE',  ( -1.000000000000000000, 0.000000000000000000, -0.000000000000000000 ) ) ;
#733 = DIRECTION ( 'NONE',  ( -1.334402673828313339E-16, 1.000000000000000000, 0.000000000000000000 ) ) ;
#734 = ORIENTED_EDGE ( 'NONE', *, *, #214, .T. ) ;
#735 = CARTESIAN_POINT ( 'NONE',  ( 0.000000000000000000, 11.00000000000000000, 0.000000000000000000 ) ) ;
#736 = PLANE ( 'NONE',  #624 ) ;
#737 = EDGE_LOOP ( 'NONE', ( #579, #216, #430, #604, #512, #270, #476, #509, #568, #462, #156, #546 ) ) ;
#738 = DIRECTION ( 'NONE',  ( -0.000000000000000000, -0.000000000000000000, 1.000000000000000000 ) ) ;
#739 = CARTESIAN_POINT ( 'NONE',  ( 9.899999999999998579, 10.84999999999999964, 2.500000000000000000 ) ) ;
#740 = CIRCLE ( 'NONE', #360, 1.599999999999999867 ) ;
#741 = ORIENTED_EDGE ( 'NONE', *, *, #340, .F. ) ;
#742 = VECTOR ( 'NONE', #629, 1000.000000000000000 ) ;
#743 = ORIENTED_EDGE ( 'NONE', *, *, #227, .T. ) ;
#744 = DIRECTION ( 'NONE',  ( -0.000000000000000000, -0.000000000000000000, -1.000000000000000000 ) ) ;
#745 = ORIENTED_EDGE ( 'NONE', *, *, #543, .F. ) ;
#746 = ADVANCED_FACE ( 'NONE', ( #280 ), #346, .F. ) ;
#747 = CARTESIAN_POINT ( 'NONE',  ( 35.79999999999999716, 7.500000000000000000, 2.500000000000000000 ) ) ;
ENDSEC;
END-ISO-10303-21;
